<svg width="20" height="20" viewBox="0 0 20 20" fill="none" xmlns="http://www.w3.org/2000/svg">
<path d="M17.5 3.64868H10.7725L9.86875 1.83868C9.65625 1.41618 9.22375 1.14868 8.75 1.14868H2.5C1.81 1.14868 1.25 1.70868 1.25 2.39868V6.14868H18.75V4.89868C18.75 4.20743 18.1912 3.64868 17.5 3.64868Z" fill="white"/>
<path d="M8.75179 14.9999C8.75179 13.3299 9.40179 11.7612 10.5818 10.5799C11.7618 9.39993 13.3318 8.74993 15.0018 8.74993C16.9518 8.74993 18.6755 9.66743 19.8218 11.0712L19.983 10.1037C20.0443 9.74118 19.9418 9.37118 19.703 9.08993C19.4668 8.80993 19.118 8.64868 18.7505 8.64868H1.25054C0.883043 8.64868 0.534293 8.80993 0.296793 9.09118C0.0592926 9.37243 -0.0432074 9.74243 0.0167926 10.1049L1.26679 17.6049C1.36679 18.2074 1.88804 18.6487 2.49929 18.6487H9.94679C9.18054 17.5899 8.75179 16.3324 8.75179 14.9999Z" fill="white"/>
<path d="M15 10C13.6637 10 12.4087 10.52 11.465 11.4637C10.52 12.4087 10 13.665 10 15C10 16.335 10.52 17.5912 11.465 18.535C12.4087 19.48 13.6637 20 15 20C16.3787 20 17.6287 19.44 18.5337 18.5337C19.4387 17.6287 20 16.3787 20 15C19.9987 12.2425 17.7563 10 15 10ZM16.275 17.5025L14.125 15.3525V12.51H15.875V14.6275L17.5125 16.265L16.275 17.5025Z" fill="white"/>
</svg>