<svg width="20" height="20" viewBox="0 0 20 20" fill="none" xmlns="http://www.w3.org/2000/svg">
<path fill-rule="evenodd" clip-rule="evenodd" d="M9.99656 3.75C7.92906 3.75 6.24656 5.4325 6.24656 7.5C6.24656 9.03375 6.11781 11.7437 5.35156 13.75H14.6416C13.8753 11.7437 13.7466 9.03375 13.7466 7.5C13.7466 5.4325 12.0641 3.75 9.99656 3.75ZM17.5 13.75C18.1912 13.75 18.75 14.31 18.75 15C18.75 15.69 18.1912 16.25 17.5 16.25H2.5C1.80875 16.25 1.25 15.69 1.25 15C1.25 14.31 1.80875 13.75 2.5 13.75H2.53125C3.075 13.3912 3.7475 10.5875 3.75 7.49997C3.75 4.48122 5.90125 1.95747 8.75 1.37622V1.27747C8.75 0.587466 9.30875 0.0274658 10 0.0274658C10.6912 0.0274658 11.25 0.587466 11.25 1.27747V1.37622C14.0988 1.95747 16.25 4.48122 16.25 7.49997C16.2525 10.5762 16.92 13.37 17.4888 13.75H17.5ZM12.5 17.5C12.5 18.88 11.38 20 10 20C8.62 20 7.5 18.88 7.5 17.5H12.5Z" fill="white"/>
</svg>