<svg width="16" height="16" viewBox="0 0 16 16" fill="none" xmlns="http://www.w3.org/2000/svg">
<path d="M14 16H1C0.448 16 0 15.552 0 15V1C0 0.448 0.448 0 1 0H14C14.552 0 15 0.448 15 1V15C15 15.552 14.552 16 14 16ZM2 14H13V2H2V14ZM12 5C12 4.448 11.552 4 11 4H9C8.448 4 8 4.448 8 5C8 5.552 8.448 6 9 6H11C11.552 6 12 5.552 12 5ZM7 5C7 4.448 6.552 4 6 4H4C3.448 4 3 4.448 3 5C3 5.552 3.448 6 4 6H6C6.552 6 7 5.552 7 5ZM12 8C12 7.448 11.552 7 11 7H9C8.448 7 8 7.448 8 8C8 8.552 8.448 9 9 9H11C11.552 9 12 8.552 12 8ZM7 8C7 7.448 6.552 7 6 7H4C3.448 7 3 7.448 3 8C3 8.552 3.448 9 4 9H6C6.552 9 7 8.552 7 8ZM12 11C12 10.448 11.552 10 11 10H9C8.448 10 8 10.448 8 11C8 11.552 8.448 12 9 12H11C11.552 12 12 11.552 12 11ZM7 11C7 10.448 6.552 10 6 10H4C3.448 10 3 10.448 3 11C3 11.552 3.448 12 4 12H6C6.552 12 7 11.552 7 11Z" fill="#1173DA"/>
</svg>
