<svg width="17" height="17" viewBox="0 0 17 17" fill="none" xmlns="http://www.w3.org/2000/svg">
<g clip-path="url(#clip0_1_1599)">
<path d="M8.01 5.111C6.411 5.111 5.11 6.412 5.11 8.011C5.11 9.61 6.411 10.911 8.01 10.911C9.609 10.911 10.91 9.61 10.91 8.011C10.91 6.412 9.609 5.111 8.01 5.111ZM8.01 9.111C7.404 9.111 6.91 8.617 6.91 8.011C6.91 7.405 7.404 6.911 8.01 6.911C8.616 6.911 9.11 7.405 9.11 8.011C9.11 8.617 8.616 9.111 8.01 9.111ZM15.271 5.63L14.198 5.448L14.829 4.562C15.084 4.204 15.043 3.714 14.732 3.404L12.617 1.29C12.306 0.98 11.818 0.938 11.458 1.193L10.572 1.824L10.392 0.75C10.318 0.317 9.943 0 9.504 0H6.516C6.077 0 5.702 0.317 5.628 0.75L5.446 1.823L4.561 1.192C4.204 0.938 3.712 0.979 3.402 1.289L1.289 3.403C0.978 3.714 0.937 4.203 1.192 4.561L1.823 5.448L0.75 5.629C0.317 5.703 0 6.078 0 6.517V9.506C0 9.945 0.317 10.32 0.75 10.394L1.822 10.574L1.191 11.462C0.936 11.82 0.978 12.309 1.288 12.62L3.402 14.733C3.714 15.045 4.203 15.086 4.56 14.83L5.446 14.2L5.628 15.274C5.701 15.707 6.076 16.024 6.515 16.024H9.503C9.942 16.024 10.317 15.707 10.391 15.274L10.572 14.201L11.457 14.832C11.814 15.088 12.306 15.045 12.616 14.735L14.731 12.619C15.042 12.308 15.083 11.819 14.828 11.46L14.197 10.574L15.27 10.393C15.703 10.32 16.02 9.945 16.02 9.505V6.517C16.02 6.078 15.704 5.703 15.271 5.63ZM14.22 8.744L13.231 8.911C12.903 8.967 12.632 9.199 12.527 9.514C12.455 9.73 12.368 9.94 12.267 10.143C12.118 10.441 12.146 10.796 12.339 11.068L12.921 11.884L11.883 12.922L11.067 12.34C10.796 12.146 10.44 12.119 10.143 12.267C9.94 12.368 9.731 12.456 9.517 12.527C9.2 12.631 8.966 12.903 8.911 13.233L8.744 14.223H7.276L7.108 13.232C7.052 12.904 6.82 12.633 6.504 12.528C6.291 12.458 6.081 12.369 5.878 12.268C5.581 12.12 5.225 12.147 4.955 12.34L4.138 12.922L3.1 11.884L3.682 11.067C3.874 10.797 3.902 10.443 3.755 10.146C3.652 9.941 3.565 9.73 3.493 9.514C3.388 9.198 3.117 8.966 2.789 8.911L1.8 8.744V7.277L2.79 7.11C3.117 7.055 3.387 6.824 3.493 6.509C3.566 6.293 3.653 6.081 3.754 5.877C3.901 5.58 3.874 5.226 3.681 4.956L3.099 4.137L4.137 3.1L4.954 3.682C5.226 3.875 5.581 3.902 5.879 3.753C6.081 3.652 6.29 3.565 6.503 3.495C6.82 3.391 7.052 3.12 7.108 2.791L7.276 1.8H8.743L8.91 2.79C8.966 3.12 9.2 3.392 9.517 3.496C9.731 3.566 9.94 3.653 10.142 3.754C10.439 3.903 10.795 3.876 11.067 3.682L11.883 3.1L12.921 4.138L12.339 4.955C12.146 5.226 12.118 5.581 12.267 5.879C12.369 6.083 12.456 6.294 12.528 6.509C12.633 6.823 12.903 7.054 13.231 7.11L14.221 7.278L14.22 8.744Z" fill="#1173DA"/>
</g>
<defs>
<clipPath id="clip0_1_1599">
<rect width="16.02" height="16.022" fill="white"/>
</clipPath>
</defs>
</svg>
