<svg width="16" height="16" viewBox="0 0 16 16" fill="none" xmlns="http://www.w3.org/2000/svg">
<g opacity="0.5">
<path fill-rule="evenodd" clip-rule="evenodd" d="M11.1221 5.8792C11.1221 6.13518 11.0245 6.39115 10.8286 6.58702L9.41441 8.00123L10.8286 9.41544C11.0238 9.6106 11.1221 9.86587 11.1221 10.1218C11.1221 10.3778 11.0245 10.6338 10.8286 10.8297C10.4383 11.22 9.80544 11.2193 9.41512 10.8289L8.0009 9.41473L6.58599 10.8297C6.19566 11.22 5.5628 11.2193 5.17248 10.8289C4.78145 10.4379 4.78145 9.80576 5.17177 9.41544L6.58669 8.00052L5.17248 6.58631C4.78145 6.19528 4.78145 5.56313 5.17177 5.1728C5.5628 4.78178 6.19496 4.78178 6.58599 5.1728L8.0002 6.58702L9.41441 5.1728C9.80544 4.78178 10.4376 4.78178 10.8286 5.1728C11.0238 5.36797 11.1221 5.62323 11.1221 5.8792ZM2.34335 2.34297C0.832264 3.85405 0 5.86294 0 7.99981C0 10.1367 0.832264 12.1456 2.34335 13.6567C3.85373 15.167 5.86262 15.9993 7.99949 15.9993C10.1364 15.9993 12.146 15.1677 13.657 13.6567C15.2169 12.0968 15.9969 10.0483 15.9954 7.99911C15.9962 5.95062 15.2162 3.90214 13.657 2.34297C10.5366 -0.776078 5.46169 -0.776785 2.34335 2.34297Z" fill="white"/>
</g>
</svg>
