<svg width="16" height="16" viewBox="0 0 16 16" fill="none" xmlns="http://www.w3.org/2000/svg">
<g opacity="0.3">
<path d="M13.95 2.28C13.88 2.11 13.71 2 13.52 2H2.47995C2.28995 2 2.11995 2.11 2.04995 2.28C1.96995 2.44 1.98995 2.64 2.10995 2.79L5.93995 7.39V11.95C5.93995 12.13 6.03995 12.3 6.20995 12.38L9.35995 13.96C9.42995 13.98 9.49995 14 9.57995 14C9.66995 14 9.75995 13.98 9.82995 13.93C9.96995 13.84 10.06 13.69 10.06 13.52V7.39L13.89 2.79C14.01 2.64 14.03 2.44 13.95 2.28Z" fill="#041526"/>
</g>
</svg>
