<svg width="16" height="16" viewBox="0 0 16 16" fill="none" xmlns="http://www.w3.org/2000/svg">
<path fill-rule="evenodd" clip-rule="evenodd" d="M6.0001 4C6.0001 2.897 6.8971 2 8.0001 2C9.1031 2 10.0001 2.897 10.0001 4C10.0001 5.103 9.1031 6 8.0001 6C6.8971 6 6.0001 5.103 6.0001 4ZM4.0001 4C4.0001 6.206 5.7941 8 8.0001 8C10.2061 8 12.0001 6.206 12.0001 4C12.0001 1.794 10.2061 0 8.0001 0C5.7941 0 4.0001 1.794 4.0001 4ZM4 13.4839C4 12.3719 4.375 11.3199 5.046 10.5059C6.896 11.4399 9.104 11.4409 10.955 10.5059C11.626 11.3199 12 12.3719 12 13.4839V13.9109C12 13.9368 11.9953 13.9574 11.992 13.9722C11.9882 13.9889 11.9861 13.9983 11.994 13.9999L4.033 14.0079C4.026 14.0039 4 13.9719 4 13.9109V13.4839ZM4 15.9997H12C13.103 15.9997 14 15.0627 14 13.9107V13.4837C14 11.5497 13.192 9.7337 11.785 8.4987L11.208 7.9927L10.57 8.4187C9.005 9.4637 6.993 9.4627 5.431 8.4187L4.793 7.9917L4.216 8.4977C2.808 9.7327 2 11.5497 2 13.4837V13.9107C2 15.0627 2.897 15.9997 4 15.9997Z" fill="white"/>
</svg>